<?xml version="1.0" encoding="iso-8859-1"?>
<!-- Generator: Adobe Illustrator 18.1.1, SVG Export Plug-In . SVG Version: 6.00 Build 0)  -->
<svg fill="#5198af" width="100px" height="100px" version="1.1" id="Capa_1" xmlns="http://www.w3.org/2000/svg" xmlns:xlink="http://www.w3.org/1999/xlink" x="0px" y="0px"
	 viewBox="0 0 76 76" style="enable-background:new 0 0 76 76;" xml:space="preserve">
<g id="_x37_7_Essential_Icons_9_">
	<path id="Clock" d="M38,0C17,0,0,17,0,38s17,38,38,38s38-17,38-38S59,0,38,0z M40,71.9v-2c0-1.1-0.9-2-2-2s-2,0.9-2,2v2
		C18.8,70.9,5.1,57.1,4.1,40h2c1.1,0,2-0.9,2-2s-0.9-2-2-2h-2C5.1,18.8,18.9,5.1,36,4.1v2c0,1.1,0.9,2,2,2s2-0.9,2-2v-2
		c17.2,1,30.9,14.8,31.9,31.9h-2c-1.1,0-2,0.9-2,2s0.9,2,2,2h2C70.9,57.2,57.2,70.9,40,71.9z M50,50c-0.8,0.8-2,0.8-2.8,0L36.6,39.4
		C36.7,39.5,36,39,36,38V14c0-1.1,0.9-2,2-2s2,0.9,2,2v23.2l10,10C50.8,48,50.8,49.2,50,50z"/>
</g>
<g>
</g>
<g>
</g>
<g>
</g>
<g>
</g>
<g>
</g>
<g>
</g>
<g>
</g>
<g>
</g>
<g>
</g>
<g>
</g>
<g>
</g>
<g>
</g>
<g>
</g>
<g>
</g>
<g>
</g>
</svg>
